<?xml version="1.0" encoding="UTF-8"?>
<svg id="Layer_1" xmlns="http://www.w3.org/2000/svg" version="1.1" viewBox="0 0 500 500">
  <!-- Generator: Adobe Illustrator 29.4.0, SVG Export Plug-In . SVG Version: 2.1.0 Build 152)  -->
  <path d="M185.57,261.78c0,29.03-25.3,37.02-59.12,37.02-17.31,0-35.42-4-45.54-12.52l13.05-21.84c6.39,5.06,15.45,9.32,32.49,9.32,24.5,0,33.82-3.2,33.82-12.52,0-25.56-79.36,5.06-79.36-46.34,0-26.9,28.49-34.89,52.19-34.89,17.31,0,42.34,3.99,52.46,12.52l-13.05,21.84c-6.66-5.06-22.37-9.05-39.41-9.05-14.91,0-27.16.8-27.16,12.25,0,18.91,79.62-.53,79.62,44.21Z"/>
  <path d="M279.57,264.18l14.38,20.77c-10.39,10.92-27.7,13.85-46.6,13.85-35.68,0-59.12-24.23-59.12-59.38,0-38.08,25.03-59.38,59.12-59.38s54.33,12.78,54.33,39.15-16.25,35.15-46.34,35.15h-40.21c4.53,15.98,17.04,19.44,32.22,19.44,6.92,0,25.03-2.93,32.22-9.59ZM214.06,229.03h35.42c18.64,0,30.36.8,30.36-10.92,0-7.19-4.79-12.78-32.49-12.78-20.77,0-30.89,5.33-33.29,23.7Z"/>
  <path d="M395.14,264.18l14.38,20.77c-10.38,10.92-27.69,13.85-46.6,13.85-35.68,0-59.12-24.23-59.12-59.38,0-38.08,25.03-59.38,59.12-59.38s54.32,12.78,54.32,39.15-16.24,35.15-46.34,35.15h-40.21c4.53,15.98,17.04,19.44,32.22,19.44,6.92,0,25.03-2.93,32.22-9.59ZM329.63,229.03h35.42c18.64,0,30.36.8,30.36-10.92,0-7.19-4.79-12.78-32.49-12.78-20.77,0-30.89,5.33-33.29,23.7Z"/>
</svg>